<?xml version="1.0" encoding="UTF-8"?>
<svg viewBox="0 0 305.03 67.86" xmlns="http://www.w3.org/2000/svg">
<defs>
<style>.cls-1{isolation:isolate;}.cls-2{fill:#fff;}.cls-3{fill:#ff4438;}.cls-4{fill:#7badd3;}.cls-5{fill:#91c258;}.cls-6{fill:#231f20;opacity:0.3;mix-blend-mode:multiply;}</style>
</defs>
<title>Asset 1</title>
<g class="cls-1">
<g data-name="Layer 2">
<g data-name="Layer 1">
<path class="cls-2" d="M154.3,26.49l-15.4,35.4q-1.69,3.8-2.74,4.68-1.53,1.29-5.73,1.29h-5.88L106.81,26.49h5.88a13.79,13.79,0,0,1,5.41.89c1.29.75,2.52,2.66,3.71,5.73l8.71,23L140.11,31a7,7,0,0,1,2.58-3.52,10.12,10.12,0,0,1,5.16-1Z"/>
<path class="cls-2" d="M242.33,67.86H236.2q-4.2,0-5.77-.76t-4-4.32L211.92,42.22V67.86q-7.66,0-9.43-1c-1.4-.8-2.1-2.85-2.1-6.13V26.49h5.89a20.76,20.76,0,0,1,5.81.49c1.23.53,2.66,1.93,4.27,4.19l14.43,20.64V33q0-4.59,2.18-5.64,1.77-.89,9.36-.89Z"/>
<path class="cls-2" d="M305,67.86q-7.66,0-9.43-1-2.1-1.12-2.1-6.13V26.57q7.58,0,9.56,1.05t2,5.89Z"/>
<path class="cls-2" d="M94.92,26.49H88.71q-4.35,0-5.76.89C82,28,81,29.53,80,32.06L65.09,67.86c6.18,0,9.64-.13,10.4-.4q2.42-.88,4.68-6.86l14.27,0-3-8.15c-.26-.76-.7-2.33-2.34-2.33H84.2l4.51-11.71L97.34,60.6a32.21,32.21,0,0,0,2.34,5c1,1.35,2.74,2.07,5.16,2.18.75.06,3.31.08,7.66.08Z"/>
<path class="cls-2" d="M177.49,26.49h-6.21q-4.35,0-5.76.89t-3,4.68l-14.92,35.8c6.19,0,9.65-.13,10.41-.4q2.41-.88,4.67-6.86l14.28,0-3-8.15c-.26-.76-.7-2.33-2.34-2.33h-4.85l4.51-11.71,8.63,22.17a32.21,32.21,0,0,0,2.34,5c1,1.35,2.74,2.07,5.16,2.18.75.06,3.31.08,7.66.08Z"/>
<path class="cls-3" d="M275.43,28.89a2.33,2.33,0,0,1,2.34-2.33H287v8.12A2.35,2.35,0,0,1,284.6,37h-9.18Z"/>
<path class="cls-2" d="M273.2,28.88a3.22,3.22,0,0,1,1-2.31H252.32A2.33,2.33,0,0,0,250,28.89V37h12.77V65.51a2.34,2.34,0,0,0,2.33,2.34h8.12Z"/>
<path class="cls-4" d="M30.56,8.17c-.09-.12-.19-.24-.29-.35a7.28,7.28,0,0,0-9.92-1.14L0,21.82l17.14,23a7.3,7.3,0,0,0,7.47,2.75L32,30.44l3.69-8.56,7.48,3.23Z"/>
<path class="cls-5" d="M36.16,3.35a7.29,7.29,0,0,0-5.89,4.47c.1.11.2.23.29.35l12.6,16.94,4.51,6.05-5.92,4.4,19.31-2.25.11,0a7.29,7.29,0,0,0,6.4-8.09L64.63,0Z"/>
<path class="cls-3" d="m61.06 33.31-19.31 2.25 5.92-4.4-4.51-6.05-7.48-3.23-3.68 8.56-7.39 17.11-0.28 0.64a7.29 7.29 0 0 0 3.81 9.58l23.29 10.06 11.33-26.33a7.28 7.28 0 0 0-1.7-8.19z"/>
<path class="cls-5" d="m59 31.91-15.79-6.8 4.51 6.05-5.92 4.4 19.31-2.25a7.19 7.19 0 0 0-2.11-1.4z"/>
<path class="cls-6" d="M43.16,25.11,30.56,8.17c-.09-.12-.19-.24-.29-.35a7.22,7.22,0,0,0-.5,3.62l2.22,19,.72,6.18,9-1.06,5.92-4.4Z"/>
<path class="cls-6" d="m43.16 25.11-7.48-3.23-3.68 8.56-7.39 17.11a7.21 7.21 0 0 0 2.73-1.26l14.41-10.73 5.92-4.4z"/>
<path class="cls-6" d="M59,31.91l-15.79-6.8-7.48-3.23L32,30.44l.72,6.18,9-1.06,19.31-2.25A7.19,7.19,0,0,0,59,31.91Z"/>
</g>
</g>
</g>
</svg>